<svg width="124" height="29" viewBox="0 0 124 29" fill="none" xmlns="http://www.w3.org/2000/svg">
<path d="M32.7307 16.5112H27.9532H23.1479H22.5595V16.5127H20.2674H18.8477L19.8517 17.5242L21.8599 19.5487L24.5253 22.2322L25.3171 23.0181L26.106 23.7996L26.5247 24.2139L26.9374 23.7937L27.7132 23.0033L28.4728 22.2307L33.1463 17.5227L34.1519 16.5112H32.7307Z" fill="#6F58C9"/>
<path d="M29.6161 29H21.3405L21.1692 28.8231L20.1446 27.7909C19.4421 28.1035 18.7146 28.3527 17.9755 28.5444C17.7735 28.5975 17.5583 28.6461 17.3373 28.6933C17.3153 28.6992 17.2978 28.7021 17.2758 28.7051C17.169 28.7272 17.0636 28.7479 16.9567 28.767L16.9377 28.77L16.9318 28.7729L16.8001 28.795L16.6655 28.8172L16.6069 28.826L16.5542 28.8349C16.5118 28.8407 16.4649 28.8466 16.4225 28.8525L16.3888 28.8865H16.181C16.0829 28.8983 15.9848 28.9086 15.8868 28.9204L15.8531 28.9233H15.8473C15.7463 28.9322 15.6423 28.941 15.537 28.9513L15.4506 28.9572C15.3833 28.9602 15.3189 28.9661 15.2662 28.969C15.2047 28.972 15.1432 28.9749 15.0847 28.9779C14.9617 28.9838 14.8388 28.9867 14.7202 28.9897C14.6134 28.9926 14.5021 28.9956 14.3924 28.9956C6.45629 29 0 22.4961 0 14.4985C0 6.50096 6.45629 0 14.3924 0C22.3284 0 28.7847 6.50391 28.7847 14.4985C28.7847 14.5855 28.7847 14.6755 28.7818 14.758V14.7949H22.9315V14.4985C22.9315 9.75513 19.101 5.89643 14.3924 5.89643C14.3031 5.89643 14.2109 5.89643 14.123 5.90233H14.0645C13.9942 5.90528 13.924 5.90823 13.8493 5.91412H13.8127L13.7908 5.91707C13.6986 5.92297 13.6093 5.92887 13.5273 5.93919L13.5054 5.94214C13.4322 5.94804 13.3575 5.95688 13.2785 5.97015C13.2448 5.9731 13.2112 5.979 13.1804 5.98195L13.1717 5.9849H13.1629C13.1102 5.9908 13.059 5.99964 12.9975 6.00996L12.9521 6.01881L12.9331 6.02176L12.9184 6.02471C12.8687 6.03061 12.8233 6.03945 12.7735 6.04978L12.7589 6.05272C12.652 6.07484 12.5496 6.09548 12.4457 6.12055C12.431 6.1235 12.412 6.12645 12.3959 6.13235L12.393 6.13529L12.2525 6.16921C12.2525 6.16921 12.2408 6.17216 12.2334 6.17216L12.1968 6.18395H12.1939C12.1471 6.19575 12.1017 6.20902 12.0593 6.22081C11.9334 6.25473 11.8134 6.29159 11.6977 6.33435L11.6728 6.34025L11.6611 6.3432L11.6524 6.34614L11.6436 6.34909C11.588 6.36679 11.5367 6.38596 11.484 6.40807L11.465 6.41397L11.4591 6.41692L11.4372 6.42577C11.3874 6.44051 11.3421 6.45968 11.2923 6.47885C11.1664 6.52898 11.0288 6.58648 10.8693 6.65873C10.8327 6.67643 10.7961 6.69265 10.7595 6.71181L10.7507 6.71771L10.7419 6.72066C10.6775 6.75163 10.6161 6.78259 10.54 6.81945C10.4756 6.85336 10.4141 6.88728 10.3497 6.92119L10.3307 6.93004L10.3189 6.93594C10.2516 6.9728 10.1843 7.00966 10.1199 7.05094L10.0672 7.08486H10.0613C10.0028 7.11877 9.94424 7.15563 9.89008 7.18954L9.87106 7.20134L9.8652 7.20429L9.84325 7.21903C9.79055 7.25 9.73932 7.28391 9.68956 7.31782C9.55197 7.41072 9.44952 7.48149 9.35145 7.55522C9.30168 7.59208 9.25338 7.62894 9.20362 7.66728L9.1641 7.69824L9.15824 7.70119C9.09384 7.75427 9.02944 7.80588 8.96797 7.85601C8.88161 7.92678 8.79964 7.99756 8.71914 8.07276L8.71036 8.0816L8.70158 8.0875C8.65913 8.12436 8.61522 8.16417 8.5757 8.20546L8.54496 8.23347C8.48056 8.29245 8.41616 8.35733 8.34883 8.42516C8.2654 8.50773 8.18343 8.59472 8.08537 8.70383L8.07658 8.71563L8.06487 8.72447C7.96974 8.83653 7.88045 8.93532 7.80141 9.03706C7.70042 9.15797 7.60528 9.28478 7.51014 9.41158L7.50136 9.4278C7.47648 9.46171 7.45598 9.49268 7.42525 9.53544C7.38865 9.58557 7.35499 9.63423 7.32133 9.68731L7.30669 9.70942C7.27595 9.75218 7.25107 9.792 7.22326 9.83623L7.19838 9.87309C6.98029 10.2166 6.78123 10.5838 6.61291 10.9613C6.58802 11.0143 6.56607 11.0659 6.54265 11.119C6.46068 11.3196 6.38018 11.5304 6.30992 11.7368L6.30114 11.7648C6.28504 11.8047 6.27333 11.8415 6.26162 11.8887C6.18844 12.1172 6.12696 12.3428 6.0772 12.5625C6.0611 12.6304 6.04646 12.6982 6.03036 12.769C5.91766 13.3352 5.85911 13.9146 5.85911 14.4956C5.85911 14.7403 5.86789 14.9836 5.88985 15.2225C5.89277 15.2653 5.8957 15.3095 5.90156 15.3581C5.90741 15.4481 5.92058 15.5351 5.93229 15.6265C5.93815 15.6855 5.94693 15.7415 5.95718 15.8064C5.96596 15.8654 5.9762 15.9273 5.98791 15.9863L5.99084 16.0084C6.00548 16.0983 6.02158 16.1838 6.04061 16.2767L6.05524 16.3387L6.06695 16.4006L6.07866 16.4566L6.0933 16.5156C6.10208 16.5495 6.1094 16.5834 6.11818 16.6144L6.12111 16.6232L6.12404 16.6291C6.19137 16.9063 6.27772 17.1821 6.37872 17.4637C6.39774 17.5138 6.41531 17.5625 6.43434 17.6111L6.43726 17.617L6.44019 17.6229C6.5968 18.0284 6.78708 18.4236 7.0081 18.804C7.03298 18.8541 7.06372 18.8998 7.09006 18.9485C7.11495 18.9854 7.1369 19.0252 7.16618 19.0694C7.1852 19.1033 7.2057 19.1343 7.22765 19.1652L7.24668 19.1962C7.30522 19.2891 7.36963 19.3849 7.44574 19.4896L7.45745 19.5117C7.48819 19.5516 7.51892 19.5943 7.54966 19.6356L7.55551 19.6415L7.55844 19.6474C7.58625 19.6843 7.61699 19.7241 7.65358 19.7712C7.67554 19.8022 7.69896 19.8302 7.72384 19.8612L7.72969 19.8671L7.73555 19.8759C7.76921 19.9187 7.80288 19.9629 7.83947 20.0057C7.92875 20.1133 8.02389 20.2224 8.13074 20.3389C8.1644 20.3758 8.19807 20.4126 8.23466 20.451C8.47031 20.6987 8.72792 20.9361 8.9987 21.1587L9.01041 21.1705C9.04408 21.1985 9.08067 21.2295 9.12751 21.2634C9.1802 21.3062 9.23435 21.346 9.29583 21.3932C9.35145 21.4359 9.41 21.4802 9.47733 21.5259C9.52416 21.5598 9.57246 21.5937 9.62809 21.6306L9.63394 21.6335L9.63979 21.6394C9.66468 21.6586 9.69249 21.6763 9.71591 21.6925L9.72469 21.6984L9.73347 21.7043C9.77592 21.7323 9.82275 21.7603 9.86813 21.7913C10.4902 22.1835 11.1591 22.4961 11.8617 22.7158C11.9231 22.7335 11.9875 22.7556 12.0636 22.7748C12.1222 22.7939 12.1837 22.8087 12.2408 22.8249L12.2627 22.8308L12.2773 22.8337C12.3227 22.8455 12.3725 22.8588 12.431 22.8735L12.6052 22.9104C12.6579 22.9222 12.7062 22.9355 12.7589 22.9443C12.8482 22.9605 12.9375 22.9782 13.0253 22.9915H13.0341L13.0428 22.9945C13.0926 23.0033 13.1409 23.0092 13.2082 23.0195C13.2639 23.0284 13.318 23.0343 13.3766 23.0416H13.3795L13.4161 23.0475C13.4644 23.0534 13.5142 23.0564 13.5639 23.0638H13.5859L13.6137 23.0667C13.8713 23.0918 14.1318 23.1036 14.3894 23.1036C14.7363 23.1036 15.0832 23.0814 15.4228 23.0387L9.94424 17.5227L8.94162 16.5097H16.9728L17.1821 16.5127L17.3446 16.6424L17.3695 16.6601L17.3914 16.6852L21.2599 20.5793L21.8952 21.2192L22.0664 21.3961L24.5693 23.9145L24.8665 24.2138L28.612 27.987L29.6146 29H29.6161Z" fill="#6F58C9"/>
<path d="M37.4747 27.6242C36.355 26.7086 35.7959 25.498 35.7959 23.9941V22.6906C35.7959 21.2103 36.3784 20.0174 37.545 19.1136C38.7115 18.2097 40.2499 17.7571 42.1629 17.7571H44.297C44.9029 17.7571 45.5572 17.8396 46.2568 18.0033C46.9565 18.1684 47.5975 18.3911 48.1816 18.6727V16.8399C48.1816 16.2531 47.9898 15.7768 47.6049 15.4126C47.2199 15.0484 46.712 14.8656 46.0826 14.8656H43.0733C42.4205 14.8656 41.895 15.0189 41.4984 15.3242C41.1017 15.6294 40.9041 16.0408 40.9041 16.5583H36.2862C36.2862 14.8435 36.9098 13.4634 38.1583 12.4165C39.4053 11.3711 41.0447 10.8477 43.0733 10.8477H46.0826C48.1347 10.8477 49.7916 11.3947 51.0504 12.4873C52.3106 13.5799 52.94 15.0307 52.94 16.8399V28.7183H48.5314V26.6039C47.9722 27.3323 47.2829 27.9147 46.4676 28.3482C45.6509 28.7832 44.8458 28.9999 44.054 28.9999H41.8848C40.0655 28.9999 38.5959 28.5414 37.4762 27.6257L37.4747 27.6242ZM44.4023 25.3329C45.2644 25.3329 46.0343 25.1103 46.712 24.6635C47.3882 24.2167 47.8786 23.6181 48.1816 22.8661V22.2675C47.8083 21.9858 47.2887 21.7632 46.6242 21.5981C45.9597 21.4344 45.2542 21.3518 44.5077 21.3518H42.3034C41.7443 21.3518 41.2891 21.4934 40.9393 21.775C40.5895 22.0566 40.4138 22.4326 40.4138 22.903V23.8186C40.4138 24.2654 40.6055 24.6296 40.9905 24.9112C41.3754 25.1928 41.8833 25.3344 42.5127 25.3344H44.4023V25.3329Z" fill="#6F58C9"/>
<path d="M54.584 11.4111H58.9926V13.667C59.4361 12.9858 60.0713 12.4285 60.8998 11.9935C61.7267 11.5585 62.5962 11.3418 63.5066 11.3418H65.8851V15.5013H63.5066C62.2698 15.5013 61.2671 15.8773 60.4972 16.6293C59.7274 17.3813 59.3424 18.3441 59.3424 19.5192V29.0001H54.584V11.4126V11.4111Z" fill="#6F58C9"/>
<path d="M71.1153 28.1698C69.9839 27.6184 69.1042 26.8428 68.4734 25.8431C67.844 24.8449 67.5293 23.6992 67.5293 22.4061V17.8588C67.5293 16.4728 67.844 15.2505 68.4734 14.1933C69.1028 13.1361 69.9839 12.3133 71.1153 11.7265C72.2467 11.1396 73.5465 10.8447 75.016 10.8447H77.8146C80.054 10.8447 81.8499 11.4788 83.2024 12.7483C84.5548 14.0178 85.231 15.709 85.231 17.8234V21.5597H72.2863V22.4061C72.2863 23.1817 72.5307 23.8039 73.021 24.2743C73.5114 24.7446 74.1759 24.9791 75.016 24.9791H77.7458C78.5625 24.9791 79.2212 24.7977 79.7232 24.432C80.2253 24.0678 80.4755 23.5916 80.4755 23.0047H85.1637C85.1637 24.1799 84.849 25.2253 84.2196 26.1409C83.5903 27.0566 82.7091 27.7629 81.5777 28.2553C80.4463 28.7493 79.1465 28.9955 77.677 28.9955H75.0175C73.548 28.9955 72.2467 28.7198 71.1168 28.1669L71.1153 28.1698ZM80.5443 18.108V17.8264C80.5443 16.9107 80.2999 16.1764 79.8096 15.6235C79.3192 15.072 78.6664 14.7948 77.8497 14.7948H75.016C74.1759 14.7948 73.4996 15.0883 72.9874 15.6766C72.4736 16.2649 72.2175 17.039 72.2175 18.0033V18.1095H80.5443V18.108Z" fill="#6F58C9"/>
<path d="M90.4639 28.1698C89.3325 27.6184 88.4529 26.8428 87.822 25.8431C87.1926 24.8449 86.8779 23.6992 86.8779 22.4061V17.8588C86.8779 16.4728 87.1926 15.2505 87.822 14.1933C88.4514 13.1361 89.3325 12.3133 90.4639 11.7265C91.5954 11.1396 92.8951 10.8447 94.3647 10.8447H97.1632C99.4026 10.8447 101.199 11.4788 102.551 12.7483C103.903 14.0178 104.58 15.709 104.58 17.8234V21.5597H91.6349V22.4061C91.6349 23.1817 91.8793 23.8039 92.3697 24.2743C92.86 24.7446 93.5245 24.9791 94.3647 24.9791H97.0929C97.9097 24.9791 98.5683 24.7977 99.0704 24.432C99.571 24.0678 99.8227 23.5916 99.8227 23.0047H104.511C104.511 24.1799 104.196 25.2253 103.567 26.1409C102.937 27.0566 102.056 27.7629 100.925 28.2553C99.7934 28.7493 98.4937 28.9955 97.0242 28.9955H94.3647C92.8951 28.9955 91.5939 28.7198 90.4639 28.1669V28.1698ZM99.893 18.108V17.8264C99.893 16.9107 99.6485 16.1764 99.1582 15.6235C98.6679 15.072 98.0151 14.7948 97.1983 14.7948H94.3647C93.5245 14.7948 92.8483 15.0883 92.336 15.6766C91.8222 16.2649 91.5661 17.039 91.5661 18.0033V18.1095H99.893V18.108Z" fill="#6F58C9"/>
<path d="M123.142 14.161C122.57 13.1038 121.766 12.2869 120.729 11.7119C119.691 11.1368 118.495 10.8478 117.143 10.8478H114.694C114.065 10.8478 113.404 11.0012 112.717 11.3064C112.029 11.6116 111.45 12.0112 110.985 12.5052V3.34424H106.227V4.04461V28.717H110.635V26.4611C111.102 27.2131 111.708 27.8235 112.455 28.2938C113.201 28.7642 113.936 28.9986 114.659 28.9986H117.072C118.425 28.9986 119.627 28.6993 120.676 28.0992C121.725 27.5006 122.542 26.6601 123.125 25.5793C123.707 24.4985 124 23.2541 124 21.843V17.8251C124 16.4391 123.715 15.2167 123.142 14.1595V14.161ZM119.242 21.4921C119.242 22.4785 118.991 23.2777 118.489 23.8881C117.987 24.5 117.329 24.8052 116.512 24.8052H114.237C113.421 24.8052 112.715 24.5177 112.121 23.9412C111.527 23.3661 111.146 22.6083 110.984 21.6676V18.636C111.077 17.5552 111.439 16.6853 112.068 16.0277C112.697 15.3701 113.479 15.0413 114.413 15.0413H116.582C117.375 15.0413 118.017 15.3288 118.507 15.9053C118.997 16.4818 119.242 17.2397 119.242 18.1789V21.4921Z" fill="#6F58C9"/>
</svg>
